%FSLAX25Y25*%
%MOIN*%
G70*
G01*
G75*
G04 Layer_Physical_Order=1*
G04 Layer_Color=255*
%ADD10R,0.03800X0.03500*%
G04:AMPARAMS|DCode=11|XSize=39.37mil|YSize=50mil|CornerRadius=0mil|HoleSize=0mil|Usage=FLASHONLY|Rotation=65.000|XOffset=0mil|YOffset=0mil|HoleType=Round|Shape=Rectangle|*
%AMROTATEDRECTD11*
4,1,4,0.01434,-0.02841,-0.03098,-0.00728,-0.01434,0.02841,0.03098,0.00728,0.01434,-0.02841,0.0*
%
%ADD11ROTATEDRECTD11*%

%ADD12R,0.04000X0.05000*%
G04:AMPARAMS|DCode=13|XSize=40mil|YSize=50mil|CornerRadius=10mil|HoleSize=0mil|Usage=FLASHONLY|Rotation=0.000|XOffset=0mil|YOffset=0mil|HoleType=Round|Shape=RoundedRectangle|*
%AMROUNDEDRECTD13*
21,1,0.04000,0.03000,0,0,0.0*
21,1,0.02000,0.05000,0,0,0.0*
1,1,0.02000,0.01000,-0.01500*
1,1,0.02000,-0.01000,-0.01500*
1,1,0.02000,-0.01000,0.01500*
1,1,0.02000,0.01000,0.01500*
%
%ADD13ROUNDEDRECTD13*%
%ADD14R,0.11811X0.19685*%
%ADD15C,0.01000*%
%ADD16C,0.03937*%
%ADD17C,0.11811*%
D10*
X417323Y31496D02*
D03*
X410423D02*
D03*
D11*
X372419Y272197D02*
D03*
X375541Y278940D02*
D03*
D12*
X389764Y31496D02*
D03*
X398264Y43307D02*
D03*
D13*
Y31496D02*
D03*
X389764Y43307D02*
D03*
D14*
X376520Y12378D02*
D03*
X356835D02*
D03*
X436583D02*
D03*
X416898D02*
D03*
X397213D02*
D03*
D15*
X358268Y15748D02*
Y17268D01*
X370679Y29679D01*
X372047Y270285D02*
X374016Y272253D01*
X370679Y29679D02*
X372047Y31047D01*
Y270285D01*
X375541Y278940D02*
X377017Y277464D01*
X375984Y3937D02*
Y267323D01*
X377017Y268355D01*
Y277464D01*
X398264Y31496D02*
Y43307D01*
Y31496D02*
X410423D01*
X410423Y31496D01*
D16*
X7874Y531496D02*
X740158D01*
X436583Y12378D02*
X441087Y7874D01*
X740158D01*
Y531496D01*
X7874Y7874D02*
Y531496D01*
X15748Y7874D02*
Y523622D01*
X7874Y7874D02*
X15748D01*
Y523622D02*
X23622D01*
Y7874D02*
Y523622D01*
Y7874D02*
X31496D01*
Y523622D01*
X39370D01*
Y7874D02*
Y523622D01*
Y7874D02*
X47244D01*
Y523622D01*
X55118D01*
Y7874D02*
Y523622D01*
Y7874D02*
X82677D01*
X62992Y66929D02*
X82677D01*
Y7874D02*
Y15748D01*
X62992D02*
X82677D01*
X62992D02*
Y23622D01*
X82677D01*
Y31496D01*
X62992D02*
X82677D01*
X62992D02*
Y39370D01*
X82677D01*
Y66929D01*
X62992D02*
Y74803D01*
X82677D01*
Y82677D01*
X62992D02*
X82677D01*
X62992D02*
Y90551D01*
X82677D01*
Y98425D01*
X62992D02*
X82677D01*
X62992D02*
Y106299D01*
X82677D01*
Y114173D01*
X62992D02*
X82677D01*
X62992D02*
Y122047D01*
X82677D01*
Y129921D01*
X62992D02*
X82677D01*
X62992D02*
Y137795D01*
X82677D01*
Y145669D01*
X62992D02*
X82677D01*
X62992D02*
Y153543D01*
X82677D01*
Y161417D01*
X62992D02*
X82677D01*
X62992D02*
Y169291D01*
X82677D01*
Y177165D01*
X62992D02*
X82677D01*
X62992D02*
Y185039D01*
X82677D01*
Y192913D01*
X62992D02*
X82677D01*
X62992D02*
Y200787D01*
X82677D01*
Y208661D01*
X62992D02*
X82677D01*
X62992D02*
Y216535D01*
X82677D01*
Y224410D01*
X62992D02*
X82677D01*
X62992D02*
Y232283D01*
X82677D01*
Y240158D01*
X62992D02*
X82677D01*
X62992D02*
Y248031D01*
X82677D01*
Y255906D01*
X62992D02*
X82677D01*
X62992D02*
Y263779D01*
X82677D01*
Y271654D01*
X62992D02*
X82677D01*
X62992D02*
Y279528D01*
X82677D01*
Y287402D01*
X62992D02*
X82677D01*
X62992D02*
Y295276D01*
X82677D01*
Y303150D01*
X62992D02*
X82677D01*
X62992D02*
Y311024D01*
X82677D01*
Y318898D01*
X62992D02*
X82677D01*
X62992D02*
Y326772D01*
X82677D01*
Y334646D01*
X62992D02*
X82677D01*
X62992D02*
Y342520D01*
X82677D01*
Y350394D01*
X62992D02*
X82677D01*
X62992D02*
Y358268D01*
X82677D01*
Y366142D01*
X62992D02*
X82677D01*
X62992D02*
Y374016D01*
X82677D01*
Y381890D01*
X62992D02*
X82677D01*
X62992D02*
Y389764D01*
X82677D01*
Y397638D01*
X62992D02*
X82677D01*
X62992D02*
Y405512D01*
X82677D01*
Y413386D01*
X62992D02*
X82677D01*
X62992D02*
Y421260D01*
X82677D01*
Y429134D01*
X62992D02*
X82677D01*
X62992D02*
Y437008D01*
X82677D01*
Y444882D01*
X62992D02*
X82677D01*
X62992D02*
Y452756D01*
X82677D01*
Y460630D01*
X62992D02*
X82677D01*
X62992D02*
Y468504D01*
X82677D01*
Y500000D01*
X62992D02*
X82677D01*
X62992D02*
Y507874D01*
X82677D01*
Y515748D01*
X62992D02*
X82677D01*
X62992D02*
Y523622D01*
X90551D01*
Y7874D02*
Y523622D01*
Y7874D02*
X98425D01*
Y523622D01*
X106299D01*
Y7874D02*
Y523622D01*
Y7874D02*
X114173D01*
Y523622D01*
X122047D01*
Y7874D02*
Y523622D01*
Y7874D02*
X129921D01*
Y523622D01*
X137795D01*
Y7874D02*
Y523622D01*
Y7874D02*
X145669D01*
Y523622D01*
X153543D01*
Y7874D02*
Y523622D01*
Y7874D02*
X161417D01*
Y523622D01*
X169291D01*
Y7874D02*
Y523622D01*
Y7874D02*
X177165D01*
Y523622D01*
X185039D01*
Y7874D02*
Y523622D01*
Y7874D02*
X192913D01*
Y523622D01*
X200787D01*
Y7874D02*
Y523622D01*
Y7874D02*
X208661D01*
Y523622D01*
X216535D01*
Y7874D02*
Y523622D01*
Y7874D02*
X224410D01*
Y523622D01*
X232283D01*
Y7874D02*
Y523622D01*
Y7874D02*
X240158D01*
Y523622D01*
X248031D01*
Y7874D02*
Y523622D01*
Y7874D02*
X255906D01*
Y523622D01*
X263779D01*
Y7874D02*
Y523622D01*
Y7874D02*
X271654D01*
Y523622D01*
X279528D01*
Y7874D02*
Y523622D01*
Y7874D02*
X287402D01*
Y523622D01*
X295276D01*
Y7874D02*
Y523622D01*
Y7874D02*
X303150D01*
Y523622D01*
X311024D01*
Y7874D02*
Y523622D01*
Y7874D02*
X318898D01*
Y523622D01*
X326772D01*
Y7874D02*
Y523622D01*
Y7874D02*
X334646D01*
Y523622D01*
X342520D01*
Y31496D02*
Y523622D01*
Y31496D02*
X350394D01*
X342520Y7874D02*
Y31496D01*
X350394D02*
Y523622D01*
X358268D01*
Y31496D02*
Y523622D01*
Y31496D02*
X366142D01*
Y523622D01*
X374016D01*
Y287402D02*
Y523622D01*
X381890D01*
Y31496D02*
Y523622D01*
Y31496D02*
X389764D01*
Y523622D02*
X397638D01*
Y51181D02*
Y523622D01*
Y51181D02*
X405512D01*
Y523622D01*
X413386D01*
X421260D02*
X429134D01*
X437008D02*
X444882D01*
X389764Y31496D02*
Y43307D01*
Y523622D01*
Y23622D02*
Y31496D01*
Y23622D02*
X397213Y16173D01*
Y12378D02*
Y16173D01*
X413386Y39764D02*
Y523622D01*
Y39764D02*
X421260D01*
Y523622D01*
X405512Y39370D02*
Y51181D01*
X429134Y35433D02*
Y523622D01*
Y35433D02*
X437008D01*
Y523622D01*
X444882Y35433D02*
Y523622D01*
Y35433D02*
X452756D01*
Y523622D01*
X448819Y15748D02*
Y27559D01*
Y15748D02*
X732283D01*
X452756Y523622D02*
X460630D01*
Y23622D02*
Y523622D01*
Y23622D02*
X468504D01*
Y523622D01*
X476378D01*
Y23622D02*
Y523622D01*
Y23622D02*
X484252D01*
Y523622D01*
X507874Y23622D02*
Y523622D01*
X500000D02*
X507874D01*
X500000Y23622D02*
Y523622D01*
X492126Y23622D02*
X500000D01*
X492126D02*
Y523622D01*
X484252D02*
X492126D01*
X531496Y23622D02*
Y523622D01*
X523622Y23622D02*
X531496D01*
X523622D02*
Y523622D01*
X515748D02*
X523622D01*
X515748Y23622D02*
Y523622D01*
X507874Y23622D02*
X515748D01*
X547244Y523622D02*
X555118D01*
X547244Y23622D02*
Y523622D01*
X539370Y23622D02*
X547244D01*
X539370D02*
Y523622D01*
X531496D02*
X539370D01*
X578740Y23622D02*
Y523622D01*
X570866Y23622D02*
X578740D01*
X570866D02*
Y523622D01*
X562992D02*
X570866D01*
X562992Y23622D02*
Y523622D01*
X602362Y23622D02*
Y523622D01*
X594488D02*
X602362D01*
X594488Y23622D02*
Y523622D01*
X586614Y23622D02*
X594488D01*
X586614D02*
Y523622D01*
X578740D02*
X586614D01*
X618110Y23622D02*
X625984D01*
X618110D02*
Y523622D01*
X610236D02*
X618110D01*
X610236Y23622D02*
Y523622D01*
X602362Y23622D02*
X610236D01*
X649606D02*
Y523622D01*
X641732D02*
X649606D01*
X641732Y23622D02*
Y523622D01*
X633858Y23622D02*
X641732D01*
X633858D02*
Y523622D01*
X665354Y23622D02*
X692913D01*
X665354D02*
Y523622D01*
X657480D02*
X665354D01*
X657480Y23622D02*
Y523622D01*
X649606Y23622D02*
X657480D01*
X692913D02*
Y31496D01*
X673228D02*
X692913D01*
X673228D02*
Y39370D01*
X692913D01*
Y66929D01*
X673228D02*
X692913D01*
X673228D02*
Y74803D01*
X692913D01*
Y82677D01*
X673228D02*
X692913D01*
X673228D02*
Y90551D01*
X692913D01*
Y98425D01*
X673228D02*
X692913D01*
X555118Y23622D02*
X562992D01*
X555118D02*
Y523622D01*
X625984Y23622D02*
Y523622D01*
X633858D01*
X673228Y98425D02*
Y106299D01*
Y129921D02*
Y137795D01*
Y129921D02*
X692913D01*
Y122047D02*
Y129921D01*
X673228Y122047D02*
X692913D01*
X673228Y114173D02*
Y122047D01*
Y114173D02*
X692913D01*
Y106299D02*
Y114173D01*
X673228Y106299D02*
X692913D01*
X673228Y161417D02*
Y169291D01*
Y161417D02*
X692913D01*
Y153543D02*
Y161417D01*
X673228Y153543D02*
X692913D01*
X673228Y145669D02*
Y153543D01*
Y145669D02*
X692913D01*
Y137795D02*
Y145669D01*
X673228Y137795D02*
X692913D01*
X673228Y192913D02*
Y200787D01*
Y192913D02*
X692913D01*
Y185039D02*
Y192913D01*
X673228Y185039D02*
X692913D01*
X673228Y177165D02*
Y185039D01*
Y177165D02*
X692913D01*
Y169291D02*
Y177165D01*
X673228Y169291D02*
X692913D01*
X673228Y224410D02*
Y232283D01*
Y224410D02*
X692913D01*
Y216535D02*
Y224410D01*
X673228Y216535D02*
X692913D01*
X673228Y208661D02*
Y216535D01*
Y208661D02*
X692913D01*
Y200787D02*
Y208661D01*
X673228Y200787D02*
X692913D01*
X673228Y255906D02*
Y263779D01*
Y255906D02*
X692913D01*
Y248031D02*
Y255906D01*
X673228Y248031D02*
X692913D01*
X673228Y240158D02*
Y248031D01*
Y240158D02*
X692913D01*
Y232283D02*
Y240158D01*
X673228Y232283D02*
X692913D01*
X673228Y287402D02*
Y295276D01*
Y287402D02*
X692913D01*
Y279528D02*
Y287402D01*
X673228Y279528D02*
X692913D01*
X673228Y271654D02*
Y279528D01*
Y271654D02*
X692913D01*
Y263779D02*
Y271654D01*
X673228Y263779D02*
X692913D01*
X673228Y318898D02*
Y326772D01*
Y318898D02*
X692913D01*
Y311024D02*
Y318898D01*
X673228Y311024D02*
X692913D01*
X673228Y303150D02*
Y311024D01*
Y303150D02*
X692913D01*
Y295276D02*
Y303150D01*
X673228Y295276D02*
X692913D01*
X673228Y350394D02*
Y358268D01*
Y350394D02*
X692913D01*
Y342520D02*
Y350394D01*
X673228Y342520D02*
X692913D01*
X673228Y334646D02*
Y342520D01*
Y334646D02*
X692913D01*
Y326772D02*
Y334646D01*
X673228Y326772D02*
X692913D01*
X673228Y381890D02*
Y389764D01*
Y381890D02*
X692913D01*
Y374016D02*
Y381890D01*
X673228Y374016D02*
X692913D01*
X673228Y366142D02*
Y374016D01*
Y366142D02*
X692913D01*
Y358268D02*
Y366142D01*
X673228Y358268D02*
X692913D01*
X673228Y413386D02*
Y421260D01*
Y413386D02*
X692913D01*
Y405512D02*
Y413386D01*
X673228Y405512D02*
X692913D01*
X673228Y397638D02*
Y405512D01*
Y397638D02*
X692913D01*
Y389764D02*
Y397638D01*
X673228Y389764D02*
X692913D01*
X673228Y444882D02*
Y452756D01*
Y444882D02*
X692913D01*
Y437008D02*
Y444882D01*
X673228Y437008D02*
X692913D01*
X673228Y429134D02*
Y437008D01*
Y429134D02*
X692913D01*
Y421260D02*
Y429134D01*
X673228Y421260D02*
X692913D01*
Y468504D02*
Y500000D01*
X673228Y468504D02*
X692913D01*
X673228Y460630D02*
Y468504D01*
Y460630D02*
X692913D01*
Y452756D02*
Y460630D01*
X673228Y452756D02*
X692913D01*
X673228Y500000D02*
X692913D01*
X673228D02*
Y507874D01*
X692913D01*
Y515748D01*
X673228D02*
X692913D01*
X673228D02*
Y523622D01*
X700787D01*
Y23622D02*
Y523622D01*
Y23622D02*
X708661D01*
Y523622D01*
X716535D01*
Y23622D02*
Y523622D01*
Y23622D02*
X724409D01*
Y523622D01*
X732283D01*
Y15748D02*
Y523622D01*
X417323Y27559D02*
Y31496D01*
Y12803D02*
Y27559D01*
X448819D01*
D17*
X68898Y53150D02*
D03*
X679134D02*
D03*
Y486221D02*
D03*
X68898D02*
D03*
M02*
