%FSLAX25Y25*%
%MOIN*%
G70*
G01*
G75*
G04 Layer_Physical_Order=2*
G04 Layer_Color=16711680*
%ADD10R,0.03800X0.03500*%
G04:AMPARAMS|DCode=11|XSize=39.37mil|YSize=50mil|CornerRadius=0mil|HoleSize=0mil|Usage=FLASHONLY|Rotation=65.000|XOffset=0mil|YOffset=0mil|HoleType=Round|Shape=Rectangle|*
%AMROTATEDRECTD11*
4,1,4,0.01434,-0.02841,-0.03098,-0.00728,-0.01434,0.02841,0.03098,0.00728,0.01434,-0.02841,0.0*
%
%ADD11ROTATEDRECTD11*%

%ADD12R,0.04000X0.05000*%
G04:AMPARAMS|DCode=13|XSize=40mil|YSize=50mil|CornerRadius=10mil|HoleSize=0mil|Usage=FLASHONLY|Rotation=0.000|XOffset=0mil|YOffset=0mil|HoleType=Round|Shape=RoundedRectangle|*
%AMROUNDEDRECTD13*
21,1,0.04000,0.03000,0,0,0.0*
21,1,0.02000,0.05000,0,0,0.0*
1,1,0.02000,0.01000,-0.01500*
1,1,0.02000,-0.01000,-0.01500*
1,1,0.02000,-0.01000,0.01500*
1,1,0.02000,0.01000,0.01500*
%
%ADD13ROUNDEDRECTD13*%
%ADD14R,0.11811X0.19685*%
%ADD15C,0.01000*%
%ADD16C,0.03937*%
%ADD17C,0.11811*%
G36*
X746610Y1421D02*
X1421D01*
Y537949D01*
X746610D01*
Y1421D01*
D02*
G37*
%LPC*%
G36*
X68898Y60088D02*
X67544Y59955D01*
X66242Y59560D01*
X65043Y58919D01*
X63991Y58056D01*
X63128Y57005D01*
X62487Y55805D01*
X62092Y54503D01*
X61959Y53150D01*
X62092Y51796D01*
X62487Y50494D01*
X63128Y49294D01*
X63991Y48243D01*
X65043Y47380D01*
X66242Y46739D01*
X67544Y46344D01*
X68898Y46211D01*
X70251Y46344D01*
X71553Y46739D01*
X72753Y47380D01*
X73804Y48243D01*
X74667Y49294D01*
X75308Y50494D01*
X75703Y51796D01*
X75837Y53150D01*
X75703Y54503D01*
X75308Y55805D01*
X74667Y57005D01*
X73804Y58056D01*
X72753Y58919D01*
X71553Y59560D01*
X70251Y59955D01*
X68898Y60088D01*
D02*
G37*
G36*
X679134D02*
X677780Y59955D01*
X676478Y59560D01*
X675279Y58919D01*
X674227Y58056D01*
X673364Y57005D01*
X672723Y55805D01*
X672328Y54503D01*
X672195Y53150D01*
X672328Y51796D01*
X672723Y50494D01*
X673364Y49294D01*
X674227Y48243D01*
X675279Y47380D01*
X676478Y46739D01*
X677780Y46344D01*
X679134Y46211D01*
X680488Y46344D01*
X681789Y46739D01*
X682989Y47380D01*
X684040Y48243D01*
X684903Y49294D01*
X685545Y50494D01*
X685940Y51796D01*
X686073Y53150D01*
X685940Y54503D01*
X685545Y55805D01*
X684903Y57005D01*
X684040Y58056D01*
X682989Y58919D01*
X681789Y59560D01*
X680488Y59955D01*
X679134Y60088D01*
D02*
G37*
G36*
Y493159D02*
X677780Y493026D01*
X676478Y492631D01*
X675279Y491990D01*
X674227Y491127D01*
X673364Y490075D01*
X672723Y488876D01*
X672328Y487574D01*
X672195Y486221D01*
X672328Y484867D01*
X672723Y483565D01*
X673364Y482365D01*
X674227Y481314D01*
X675279Y480451D01*
X676478Y479810D01*
X677780Y479415D01*
X679134Y479282D01*
X680488Y479415D01*
X681789Y479810D01*
X682989Y480451D01*
X684040Y481314D01*
X684903Y482365D01*
X685545Y483565D01*
X685940Y484867D01*
X686073Y486221D01*
X685940Y487574D01*
X685545Y488876D01*
X684903Y490075D01*
X684040Y491127D01*
X682989Y491990D01*
X681789Y492631D01*
X680488Y493026D01*
X679134Y493159D01*
D02*
G37*
G36*
X68898D02*
X67544Y493026D01*
X66242Y492631D01*
X65043Y491990D01*
X63991Y491127D01*
X63128Y490075D01*
X62487Y488876D01*
X62092Y487574D01*
X61959Y486221D01*
X62092Y484867D01*
X62487Y483565D01*
X63128Y482365D01*
X63991Y481314D01*
X65043Y480451D01*
X66242Y479810D01*
X67544Y479415D01*
X68898Y479282D01*
X70251Y479415D01*
X71553Y479810D01*
X72753Y480451D01*
X73804Y481314D01*
X74667Y482365D01*
X75308Y483565D01*
X75703Y484867D01*
X75837Y486221D01*
X75703Y487574D01*
X75308Y488876D01*
X74667Y490075D01*
X73804Y491127D01*
X72753Y491990D01*
X71553Y492631D01*
X70251Y493026D01*
X68898Y493159D01*
D02*
G37*
%LPD*%
D17*
Y53150D02*
D03*
X679134D02*
D03*
Y486221D02*
D03*
X68898D02*
D03*
M02*
